# xmcd
#
# Track frame offsets:
# 150
# 16837
# 31339
# 45514
# 68320
# 85918
# 102342
# 112327
# 132382
# 150548
# 161837
# 174670
#
# Disc length: 2545 seconds
#
#
# Revision: 0
# Processed by: cddbd v1.5.1PL0 Copyright (c) Steve Scherf et al.
# Submitted via: FreeRIP 2.60 
#
DISCID=9409ef0c
DTITLE=Tracy Chapman - Let It Rain
DYEAR=2002
DGENRE=R&B
TTITLE0=Let It Rain
TTITLE1=Another Sun
TTITLE2=You're The One
TTITLE3=In The Dark
TTITLE4=Almost
TTITLE5=Hard Wired
TTITLE6=Say Hallelujah
TTITLE7=Broken
TTITLE8=Happy
TTITLE9=Goodbye
TTITLE10=Over In Love
TTITLE11=I Am Yours
EXTD=
EXTT0=
EXTT1=
EXTT2=
EXTT3=
EXTT4=
EXTT5=
EXTT6=
EXTT7=
EXTT8=
EXTT9=
EXTT10=
EXTT11=
PLAYORDER=
